<svg id="visual" viewBox="0 0 960 540" width="960" height="540" xmlns="http://www.w3.org/2000/svg" xmlns:xlink="http://www.w3.org/1999/xlink" version="1.1"><rect x="0" y="0" width="960" height="540" fill="#000000"></rect><path d="M0 384L22.8 382C45.7 380 91.3 376 137 366C182.7 356 228.3 340 274 336.7C319.7 333.3 365.3 342.7 411.2 350.8C457 359 503 366 548.8 366.8C594.7 367.7 640.3 362.3 686 367.3C731.7 372.3 777.3 387.7 823 385.7C868.7 383.7 914.3 364.3 937.2 354.7L960 345L960 541L937.2 541C914.3 541 868.7 541 823 541C777.3 541 731.7 541 686 541C640.3 541 594.7 541 548.8 541C503 541 457 541 411.2 541C365.3 541 319.7 541 274 541C228.3 541 182.7 541 137 541C91.3 541 45.7 541 22.8 541L0 541Z" fill="#7362ef"></path><path d="M0 376L22.8 375.8C45.7 375.7 91.3 375.3 137 379.7C182.7 384 228.3 393 274 395C319.7 397 365.3 392 411.2 387.2C457 382.3 503 377.7 548.8 376.5C594.7 375.3 640.3 377.7 686 377.5C731.7 377.3 777.3 374.7 823 383.2C868.7 391.7 914.3 411.3 937.2 421.2L960 431L960 541L937.2 541C914.3 541 868.7 541 823 541C777.3 541 731.7 541 686 541C640.3 541 594.7 541 548.8 541C503 541 457 541 411.2 541C365.3 541 319.7 541 274 541C228.3 541 182.7 541 137 541C91.3 541 45.7 541 22.8 541L0 541Z" fill="#6454d7"></path><path d="M0 445L22.8 439.8C45.7 434.7 91.3 424.3 137 425.7C182.7 427 228.3 440 274 441.3C319.7 442.7 365.3 432.3 411.2 428.8C457 425.3 503 428.7 548.8 428C594.7 427.3 640.3 422.7 686 417C731.7 411.3 777.3 404.7 823 401.2C868.7 397.7 914.3 397.3 937.2 397.2L960 397L960 541L937.2 541C914.3 541 868.7 541 823 541C777.3 541 731.7 541 686 541C640.3 541 594.7 541 548.8 541C503 541 457 541 411.2 541C365.3 541 319.7 541 274 541C228.3 541 182.7 541 137 541C91.3 541 45.7 541 22.8 541L0 541Z" fill="#5546bf"></path><path d="M0 439L22.8 439.3C45.7 439.7 91.3 440.3 137 442.7C182.7 445 228.3 449 274 452.7C319.7 456.3 365.3 459.7 411.2 462C457 464.3 503 465.7 548.8 461.2C594.7 456.7 640.3 446.3 686 447.8C731.7 449.3 777.3 462.7 823 462C868.7 461.3 914.3 446.7 937.2 439.3L960 432L960 541L937.2 541C914.3 541 868.7 541 823 541C777.3 541 731.7 541 686 541C640.3 541 594.7 541 548.8 541C503 541 457 541 411.2 541C365.3 541 319.7 541 274 541C228.3 541 182.7 541 137 541C91.3 541 45.7 541 22.8 541L0 541Z" fill="#4639a8"></path><path d="M0 494L22.8 490.7C45.7 487.3 91.3 480.7 137 479.3C182.7 478 228.3 482 274 487.5C319.7 493 365.3 500 411.2 503.3C457 506.7 503 506.3 548.8 502C594.7 497.7 640.3 489.3 686 486.2C731.7 483 777.3 485 823 485.7C868.7 486.3 914.3 485.7 937.2 485.3L960 485L960 541L937.2 541C914.3 541 868.7 541 823 541C777.3 541 731.7 541 686 541C640.3 541 594.7 541 548.8 541C503 541 457 541 411.2 541C365.3 541 319.7 541 274 541C228.3 541 182.7 541 137 541C91.3 541 45.7 541 22.8 541L0 541Z" fill="#382c91"></path></svg>