<svg xmlns="http://www.w3.org/2000/svg" xmlns:xlink="http://www.w3.org/1999/xlink" width="1080" zoomAndPan="magnify" viewBox="0 0 810 809.999993" height="1080" preserveAspectRatio="xMidYMid meet" version="1.0"><defs><clipPath id="ffed761359"><path d="M 0 177.1875 L 810 177.1875 L 810 633 L 0 633 Z M 0 177.1875 " clip-rule="nonzero"/></clipPath><clipPath id="ab9ac1da78"><path d="M 0 231.1875 L 0 578.8125 C 0 608.636719 24.175781 632.8125 54 632.8125 L 756 632.8125 C 785.824219 632.8125 810 608.636719 810 578.8125 L 810 231.1875 C 810 201.363281 785.824219 177.1875 756 177.1875 L 54 177.1875 C 24.175781 177.1875 0 201.363281 0 231.1875 Z M 0 231.1875 " clip-rule="nonzero"/></clipPath><clipPath id="952e6e319a"><path d="M 0 523 L 810 523 L 810 633 L 0 633 Z M 0 523 " clip-rule="nonzero"/></clipPath><clipPath id="371032ca6a"><path d="M 0 231.1875 L 0 578.8125 C 0 608.636719 24.175781 632.8125 54 632.8125 L 756 632.8125 C 785.824219 632.8125 810 608.636719 810 578.8125 L 810 231.1875 C 810 201.363281 785.824219 177.1875 756 177.1875 L 54 177.1875 C 24.175781 177.1875 0 201.363281 0 231.1875 Z M 0 231.1875 " clip-rule="nonzero"/></clipPath><clipPath id="0f159254af"><path d="M 0 548 L 810 548 L 810 633 L 0 633 Z M 0 548 " clip-rule="nonzero"/></clipPath><clipPath id="9251e6dc71"><path d="M 0 231.1875 L 0 578.8125 C 0 608.636719 24.175781 632.8125 54 632.8125 L 756 632.8125 C 785.824219 632.8125 810 608.636719 810 578.8125 L 810 231.1875 C 810 201.363281 785.824219 177.1875 756 177.1875 L 54 177.1875 C 24.175781 177.1875 0 201.363281 0 231.1875 Z M 0 231.1875 " clip-rule="nonzero"/></clipPath><clipPath id="7e87894205"><path d="M 0 559 L 810 559 L 810 633 L 0 633 Z M 0 559 " clip-rule="nonzero"/></clipPath><clipPath id="fefd3b77c0"><path d="M 0 231.1875 L 0 578.8125 C 0 608.636719 24.175781 632.8125 54 632.8125 L 756 632.8125 C 785.824219 632.8125 810 608.636719 810 578.8125 L 810 231.1875 C 810 201.363281 785.824219 177.1875 756 177.1875 L 54 177.1875 C 24.175781 177.1875 0 201.363281 0 231.1875 Z M 0 231.1875 " clip-rule="nonzero"/></clipPath><clipPath id="db0f585f3f"><path d="M 0 581 L 810 581 L 810 633 L 0 633 Z M 0 581 " clip-rule="nonzero"/></clipPath><clipPath id="7f5e753888"><path d="M 0 231.1875 L 0 578.8125 C 0 608.636719 24.175781 632.8125 54 632.8125 L 756 632.8125 C 785.824219 632.8125 810 608.636719 810 578.8125 L 810 231.1875 C 810 201.363281 785.824219 177.1875 756 177.1875 L 54 177.1875 C 24.175781 177.1875 0 201.363281 0 231.1875 Z M 0 231.1875 " clip-rule="nonzero"/></clipPath><clipPath id="3f52090e29"><path d="M 0 602 L 810 602 L 810 633 L 0 633 Z M 0 602 " clip-rule="nonzero"/></clipPath><clipPath id="ba6c2c4ba7"><path d="M 0 231.1875 L 0 578.8125 C 0 608.636719 24.175781 632.8125 54 632.8125 L 756 632.8125 C 785.824219 632.8125 810 608.636719 810 578.8125 L 810 231.1875 C 810 201.363281 785.824219 177.1875 756 177.1875 L 54 177.1875 C 24.175781 177.1875 0 201.363281 0 231.1875 Z M 0 231.1875 " clip-rule="nonzero"/></clipPath><clipPath id="8ab762e96e"><path d="M 301 360 L 437 360 L 437 442.917969 L 301 442.917969 Z M 301 360 " clip-rule="nonzero"/></clipPath><clipPath id="cee40a0bd9"><path d="M 428 360 L 512 360 L 512 442.917969 L 428 442.917969 Z M 428 360 " clip-rule="nonzero"/></clipPath><clipPath id="186997aef0"><path d="M 589 360 L 677 360 L 677 442.917969 L 589 442.917969 Z M 589 360 " clip-rule="nonzero"/></clipPath><clipPath id="734e0b9976"><path d="M 667 360 L 743 360 L 743 442.917969 L 667 442.917969 Z M 667 360 " clip-rule="nonzero"/></clipPath><clipPath id="050a97ea73"><path d="M 81 344.144531 L 278.25 344.144531 L 278.25 442.394531 L 81 442.394531 Z M 81 344.144531 " clip-rule="nonzero"/></clipPath></defs><rect x="-81" width="972" fill="#ffffff" y="-80.999999" height="971.999992" fill-opacity="1"/><rect x="-81" width="972" fill="#ffffff" y="-80.999999" height="971.999992" fill-opacity="1"/><g clip-path="url(#ffed761359)"><g clip-path="url(#ab9ac1da78)"><path fill="#000000" d="M 0 177.1875 L 810 177.1875 L 810 633.1875 L 0 633.1875 Z M 0 177.1875 " fill-opacity="1" fill-rule="nonzero"/></g></g><g clip-path="url(#952e6e319a)"><g clip-path="url(#371032ca6a)"><path fill="#382c91" d="M 0 523.410156 L 19.238281 529.742188 C 38.558594 536.078125 77.035156 548.742188 115.59375 551.867188 C 154.152344 554.90625 192.628906 548.488281 231.1875 547.898438 C 269.746094 547.308594 308.222656 552.710938 346.949219 553.980469 C 385.59375 555.246094 424.40625 552.375 463.050781 550.179688 C 501.777344 547.898438 540.253906 546.210938 578.8125 548.488281 C 617.371094 550.683594 655.847656 556.933594 694.40625 555.078125 C 732.964844 553.21875 771.441406 543.421875 790.761719 538.441406 L 810 533.542969 L 810 634.03125 L 790.761719 634.03125 C 771.441406 634.03125 732.964844 634.03125 694.40625 634.03125 C 655.847656 634.03125 617.371094 634.03125 578.8125 634.03125 C 540.253906 634.03125 501.777344 634.03125 463.050781 634.03125 C 424.40625 634.03125 385.59375 634.03125 346.949219 634.03125 C 308.222656 634.03125 269.746094 634.03125 231.1875 634.03125 C 192.628906 634.03125 154.152344 634.03125 115.59375 634.03125 C 77.035156 634.03125 38.558594 634.03125 19.238281 634.03125 L 0 634.03125 Z M 0 523.410156 " fill-opacity="1" fill-rule="nonzero"/></g></g><g clip-path="url(#0f159254af)"><g clip-path="url(#9251e6dc71)"><path fill="#4639a8" d="M 0 558.03125 L 19.238281 560.734375 C 38.558594 563.351562 77.035156 568.757812 115.59375 570.953125 C 154.152344 573.230469 192.628906 572.386719 231.1875 567.910156 C 269.746094 563.351562 308.222656 555.246094 346.949219 551.445312 C 385.59375 547.644531 424.40625 548.152344 463.050781 551.699219 C 501.777344 555.246094 540.253906 561.664062 578.8125 563.351562 C 617.371094 565.039062 655.847656 562 694.40625 560.734375 C 732.964844 559.46875 771.441406 559.972656 790.761719 560.3125 L 810 560.566406 L 810 634.03125 L 790.761719 634.03125 C 771.441406 634.03125 732.964844 634.03125 694.40625 634.03125 C 655.847656 634.03125 617.371094 634.03125 578.8125 634.03125 C 540.253906 634.03125 501.777344 634.03125 463.050781 634.03125 C 424.40625 634.03125 385.59375 634.03125 346.949219 634.03125 C 308.222656 634.03125 269.746094 634.03125 231.1875 634.03125 C 192.628906 634.03125 154.152344 634.03125 115.59375 634.03125 C 77.035156 634.03125 38.558594 634.03125 19.238281 634.03125 L 0 634.03125 Z M 0 558.03125 " fill-opacity="1" fill-rule="nonzero"/></g></g><g clip-path="url(#7e87894205)"><g clip-path="url(#fefd3b77c0)"><path fill="#5546bf" d="M 0 571.542969 L 19.238281 570.867188 C 38.558594 570.109375 77.035156 568.757812 115.59375 567.574219 C 154.152344 566.476562 192.628906 565.632812 231.1875 565.210938 C 269.746094 564.789062 308.222656 564.789062 346.949219 564.195312 C 385.59375 563.691406 424.40625 562.507812 463.050781 561.578125 C 501.777344 560.566406 540.253906 559.722656 578.8125 559.46875 C 617.371094 559.128906 655.847656 559.46875 694.40625 560.3125 C 732.964844 561.15625 771.441406 562.507812 790.761719 563.265625 L 810 563.941406 L 810 634.03125 L 790.761719 634.03125 C 771.441406 634.03125 732.964844 634.03125 694.40625 634.03125 C 655.847656 634.03125 617.371094 634.03125 578.8125 634.03125 C 540.253906 634.03125 501.777344 634.03125 463.050781 634.03125 C 424.40625 634.03125 385.59375 634.03125 346.949219 634.03125 C 308.222656 634.03125 269.746094 634.03125 231.1875 634.03125 C 192.628906 634.03125 154.152344 634.03125 115.59375 634.03125 C 77.035156 634.03125 38.558594 634.03125 19.238281 634.03125 L 0 634.03125 Z M 0 571.542969 " fill-opacity="1" fill-rule="nonzero"/></g></g><g clip-path="url(#db0f585f3f)"><g clip-path="url(#7f5e753888)"><path fill="#6454d7" d="M 0 590.121094 L 19.238281 589.53125 C 38.558594 589.023438 77.035156 587.839844 115.59375 588.433594 C 154.152344 589.023438 192.628906 591.21875 231.1875 593.246094 C 269.746094 595.1875 308.222656 596.875 346.949219 595.777344 C 385.59375 594.597656 424.40625 590.710938 463.050781 587.335938 C 501.777344 583.957031 540.253906 581.085938 578.8125 583.195312 C 617.371094 585.308594 655.847656 592.402344 694.40625 592.90625 C 732.964844 593.5 771.441406 587.585938 790.761719 584.632812 L 810 581.675781 L 810 634.03125 L 790.761719 634.03125 C 771.441406 634.03125 732.964844 634.03125 694.40625 634.03125 C 655.847656 634.03125 617.371094 634.03125 578.8125 634.03125 C 540.253906 634.03125 501.777344 634.03125 463.050781 634.03125 C 424.40625 634.03125 385.59375 634.03125 346.949219 634.03125 C 308.222656 634.03125 269.746094 634.03125 231.1875 634.03125 C 192.628906 634.03125 154.152344 634.03125 115.59375 634.03125 C 77.035156 634.03125 38.558594 634.03125 19.238281 634.03125 L 0 634.03125 Z M 0 590.121094 " fill-opacity="1" fill-rule="nonzero"/></g></g><g clip-path="url(#3f52090e29)"><g clip-path="url(#ba6c2c4ba7)"><path fill="#7362ef" d="M 0 617.988281 L 19.238281 615.285156 C 38.558594 612.667969 77.035156 607.261719 115.59375 606.585938 C 154.152344 605.910156 192.628906 609.796875 231.1875 612.246094 C 269.746094 614.609375 308.222656 615.453125 346.949219 614.609375 C 385.59375 613.765625 424.40625 611.230469 463.050781 608.953125 C 501.777344 606.757812 540.253906 604.730469 578.8125 603.632812 C 617.371094 602.535156 655.847656 602.195312 694.40625 603.464844 C 732.964844 604.730469 771.441406 607.601562 790.761719 608.953125 L 810 610.386719 L 810 634.03125 L 790.761719 634.03125 C 771.441406 634.03125 732.964844 634.03125 694.40625 634.03125 C 655.847656 634.03125 617.371094 634.03125 578.8125 634.03125 C 540.253906 634.03125 501.777344 634.03125 463.050781 634.03125 C 424.40625 634.03125 385.59375 634.03125 346.949219 634.03125 C 308.222656 634.03125 269.746094 634.03125 231.1875 634.03125 C 192.628906 634.03125 154.152344 634.03125 115.59375 634.03125 C 77.035156 634.03125 38.558594 634.03125 19.238281 634.03125 L 0 634.03125 Z M 0 617.988281 " fill-opacity="1" fill-rule="nonzero"/></g></g><g clip-path="url(#8ab762e96e)"><path fill="#ffffff" d="M 340.0625 360.765625 C 353.296875 360.765625 363.40625 363.792969 370.382812 369.820312 C 377.355469 375.863281 380.84375 385.113281 380.84375 397.574219 L 380.84375 441.84375 L 354.785156 441.84375 L 354.785156 431.527344 C 350.742188 439.277344 342.894531 443.152344 331.246094 443.152344 C 325.046875 443.152344 319.683594 442.085938 315.164062 439.957031 C 310.671875 437.800781 307.269531 434.871094 304.945312 431.191406 C 302.644531 427.507812 301.507812 423.320312 301.507812 418.597656 C 301.507812 411.039062 304.386719 405.179688 310.175781 401.015625 C 315.988281 396.847656 324.914062 394.765625 336.960938 394.765625 L 352.847656 394.765625 C 352.363281 386.335938 346.722656 382.125 335.945312 382.125 C 332.128906 382.125 328.253906 382.742188 324.320312 383.964844 C 320.410156 385.199219 317.066406 386.871094 314.292969 389 L 304.898438 370.015625 C 309.316406 367.085938 314.691406 364.808594 321.027344 363.1875 C 327.347656 361.574219 333.691406 360.765625 340.0625 360.765625 Z M 339.042969 425.523438 C 342.265625 425.523438 345.109375 424.746094 347.570312 423.199219 C 350.015625 421.625 351.78125 419.296875 352.847656 416.222656 L 352.847656 409.34375 L 340.789062 409.34375 C 332.652344 409.34375 328.582031 412.046875 328.582031 417.433594 C 328.582031 419.890625 329.515625 421.867188 331.390625 423.34375 C 333.257812 424.796875 335.8125 425.523438 339.042969 425.523438 Z M 410.101562 371.660156 C 412.933594 368.015625 416.640625 365.292969 421.191406 363.476562 C 425.769531 361.671875 431 360.765625 436.886719 360.765625 L 436.886719 385.949219 C 434.332031 385.636719 432.210938 385.464844 430.539062 385.464844 C 424.558594 385.464844 419.882812 387.101562 416.492188 390.359375 C 413.128906 393.589844 411.457031 398.542969 411.457031 405.226562 L 411.457031 441.84375 L 383.460938 441.84375 L 383.460938 362.070312 L 410.101562 362.070312 Z M 410.101562 371.660156 " fill-opacity="1" fill-rule="nonzero"/></g><g clip-path="url(#cee40a0bd9)"><path fill="#ffffff" d="M 474.421875 443.152344 C 465.570312 443.152344 457.664062 441.398438 450.6875 437.875 C 443.738281 434.363281 438.335938 429.46875 434.460938 423.199219 C 430.585938 416.902344 428.648438 409.78125 428.648438 401.835938 C 428.648438 393.894531 430.585938 386.808594 434.460938 380.574219 C 438.335938 374.351562 443.738281 369.480469 450.6875 365.996094 C 457.664062 362.507812 465.570312 360.765625 474.421875 360.765625 C 483.429688 360.765625 491.207031 362.699219 497.769531 366.574219 C 504.355469 370.449219 509.019531 375.828125 511.765625 382.707031 L 490.164062 393.75 C 486.542969 386.582031 481.25 382.996094 474.277344 382.996094 C 469.265625 382.996094 465.121094 384.667969 461.828125 387.984375 C 458.535156 391.316406 456.886719 395.929688 456.886719 401.835938 C 456.886719 407.820312 458.535156 412.492188 461.828125 415.882812 C 465.121094 419.273438 469.265625 420.96875 474.277344 420.96875 C 481.25 420.96875 486.542969 417.386719 490.164062 410.21875 L 511.765625 421.261719 C 509.019531 428.113281 504.355469 433.464844 497.769531 437.339844 C 491.207031 441.214844 483.429688 443.152344 474.421875 443.152344 Z M 474.421875 443.152344 " fill-opacity="1" fill-rule="nonzero"/></g><path fill="#ffffff" d="M 559.332031 360.765625 C 569.238281 360.765625 577.207031 363.71875 583.210938 369.628906 C 589.242188 375.511719 592.269531 384.375 592.269531 396.21875 L 592.269531 441.84375 L 564.320312 441.84375 L 564.320312 400.773438 C 564.320312 389.898438 559.960938 384.449219 551.246094 384.449219 C 546.425781 384.449219 542.574219 386.035156 539.667969 389.195312 C 536.785156 392.332031 535.359375 397.03125 535.359375 403.289062 L 535.359375 441.84375 L 507.363281 441.84375 L 507.363281 332.671875 L 535.359375 332.671875 L 535.359375 369.433594 C 538.386719 366.601562 541.957031 364.445312 546.0625 362.992188 C 550.191406 361.515625 554.609375 360.765625 559.332031 360.765625 Z M 559.332031 360.765625 " fill-opacity="1" fill-rule="nonzero"/><g clip-path="url(#186997aef0)"><path fill="#ffffff" d="M 676.289062 402.128906 C 676.289062 402.320312 676.140625 404.632812 675.851562 409.054688 L 617.875 409.054688 C 619.058594 413.160156 621.335938 416.320312 624.703125 418.546875 C 628.09375 420.753906 632.332031 421.839844 637.441406 421.839844 C 641.28125 421.839844 644.585938 421.308594 647.371094 420.242188 C 650.179688 419.152344 653 417.375 655.847656 414.914062 L 670.570312 430.222656 C 662.820312 438.84375 651.488281 443.152344 636.570312 443.152344 C 627.234375 443.152344 619.035156 441.398438 611.964844 437.875 C 604.917969 434.363281 599.46875 429.46875 595.59375 423.199219 C 591.71875 416.902344 589.78125 409.78125 589.78125 401.835938 C 589.78125 393.992188 591.667969 386.957031 595.449219 380.71875 C 599.226562 374.496094 604.433594 369.617188 611.09375 366.09375 C 617.777344 362.542969 625.285156 360.765625 633.613281 360.765625 C 641.558594 360.765625 648.75 362.410156 655.21875 365.703125 C 661.707031 368.996094 666.84375 373.769531 670.621094 379.992188 C 674.398438 386.191406 676.285156 393.578125 676.285156 402.128906 Z M 633.761719 380.621094 C 629.460938 380.621094 625.863281 381.859375 622.960938 384.304688 C 620.054688 386.761719 618.210938 390.105469 617.4375 394.328125 L 650.132812 394.328125 C 649.320312 390.105469 647.46875 386.761719 644.5625 384.304688 C 641.679688 381.859375 638.082031 380.621094 633.761719 380.621094 Z M 633.761719 380.621094 " fill-opacity="1" fill-rule="nonzero"/></g><g clip-path="url(#734e0b9976)"><path fill="#ffffff" d="M 703.242188 443.152344 C 696.570312 443.15625 689.980469 442.394531 683.480469 440.875 C 677.015625 439.363281 671.832031 437.378906 667.933594 434.917969 L 676.3125 415.785156 C 679.921875 418.050781 684.234375 419.84375 689.246094 421.164062 C 694.246094 422.496094 699.199219 423.148438 704.117188 423.148438 C 708.632812 423.148438 711.839844 422.6875 713.753906 421.746094 C 715.65625 420.8125 716.613281 419.46875 716.613281 417.722656 C 716.613281 415.957031 715.449219 414.710938 713.125 413.996094 C 710.824219 413.257812 707.191406 412.53125 702.226562 411.816406 C 695.832031 411.039062 690.410156 410.023438 685.953125 408.765625 C 681.496094 407.480469 677.632812 405.117188 674.375 401.691406 C 671.144531 398.242188 669.53125 393.433594 669.53125 387.257812 C 669.53125 382.160156 671.046875 377.621094 674.085938 373.648438 C 677.113281 369.675781 681.558594 366.550781 687.40625 364.25 C 693.242188 361.925781 700.242188 360.765625 708.378906 360.765625 C 714.152344 360.765625 719.882812 361.371094 725.574219 362.554688 C 731.289062 363.71875 736.046875 365.390625 739.863281 367.542969 L 731.480469 386.53125 C 724.410156 382.597656 716.757812 380.621094 708.523438 380.621094 C 704.089844 380.621094 700.847656 381.144531 698.789062 382.171875 C 696.753906 383.214844 695.738281 384.570312 695.738281 386.242188 C 695.738281 388.082031 696.863281 389.378906 699.128906 390.117188 C 701.378906 390.867188 705.109375 391.617188 710.316406 392.390625 C 716.867188 393.398438 722.304688 394.546875 726.640625 395.832031 C 730.960938 397.089844 734.703125 399.414062 737.875 402.804688 C 741.074219 406.171875 742.671875 410.894531 742.671875 416.996094 C 742.671875 422.011719 741.144531 426.492188 738.117188 430.464844 C 735.078125 434.433594 730.585938 437.558594 724.652344 439.8125 C 718.707031 442.039062 711.574219 443.152344 703.242188 443.152344 Z M 703.242188 443.152344 " fill-opacity="1" fill-rule="nonzero"/></g><g clip-path="url(#050a97ea73)"><path fill="#ffffff" d="M 146 359.609375 C 114.398438 374.175781 92.4375 406 92.4375 442.757812 L 100.953125 442.757812 C 100.953125 403.984375 127.847656 371.261719 163.929688 362.296875 C 129.191406 372.605469 103.867188 404.878906 103.867188 442.757812 L 111.710938 442.757812 C 111.710938 403.3125 141.742188 370.8125 180.066406 367.003906 C 143.535156 372.832031 115.519531 404.433594 115.519531 442.757812 L 122.917969 442.757812 C 122.917969 404.433594 154.070312 373.277344 192.394531 373.277344 L 194.859375 373.277344 C 157.207031 374.175781 126.949219 405.105469 126.949219 442.757812 L 133.675781 442.757812 C 133.675781 408.242188 161.6875 380.003906 196.429688 380.003906 C 200.015625 380.003906 203.601562 380.226562 206.960938 380.898438 C 204.945312 380.675781 202.703125 380.449219 200.460938 380.449219 C 166.171875 380.675781 138.378906 408.464844 138.378906 442.757812 L 144.65625 442.757812 C 144.65625 411.828125 169.757812 386.949219 200.460938 386.949219 C 206.515625 386.949219 212.339844 387.847656 217.71875 389.640625 C 213.460938 388.519531 209.203125 388.070312 204.71875 388.070312 C 174.464844 388.070312 150.035156 412.722656 150.035156 442.757812 L 155.636719 442.757812 C 155.636719 415.636719 177.601562 393.675781 204.722656 393.675781 C 212.566406 393.675781 219.960938 395.46875 226.683594 398.828125 C 221.082031 396.585938 215.253906 395.242188 208.980469 395.242188 C 182.757812 395.242188 161.464844 416.535156 161.464844 442.757812 L 166.394531 442.757812 C 166.394531 419.449219 185.445312 400.398438 208.753906 400.398438 C 217.945312 400.398438 226.238281 403.3125 233.183594 408.242188 C 227.132812 404.65625 220.183594 402.640625 212.789062 402.640625 C 190.824219 402.640625 172.894531 420.570312 172.894531 442.757812 L 177.378906 442.757812 C 177.378906 423.035156 193.289062 407.121094 213.011719 407.121094 C 222.875 407.121094 231.839844 411.15625 238.339844 417.65625 C 232.511719 412.722656 225.339844 409.8125 217.269531 409.8125 C 199.117188 409.8125 184.324219 424.601562 184.324219 442.757812 L 188.359375 442.757812 C 188.359375 426.84375 201.359375 413.84375 217.269531 413.84375 C 227.355469 413.84375 236.320312 419 241.476562 427.066406 C 236.769531 421.242188 229.597656 417.207031 221.53125 417.207031 C 207.410156 417.207031 195.980469 428.636719 195.980469 442.757812 L 199.339844 442.757812 C 199.339844 430.429688 209.203125 420.570312 221.53125 420.570312 C 231.617188 420.570312 240.132812 427.292969 242.820312 436.480469 C 240.132812 429.535156 233.632812 424.601562 225.789062 424.601562 C 215.703125 424.601562 207.632812 432.671875 207.632812 442.757812 L 210.324219 442.757812 C 210.324219 434.238281 217.273438 427.292969 225.789062 427.292969 C 232.734375 427.292969 238.5625 432 240.582031 438.273438 C 238.785156 434.464844 234.976562 431.773438 230.496094 431.773438 C 224.445312 431.773438 219.511719 436.707031 219.511719 442.757812 L 221.753906 442.757812 C 221.753906 438.050781 225.5625 434.015625 230.496094 434.015625 C 235.425781 434.015625 239.234375 437.824219 239.234375 442.757812 L 278.230469 442.757812 C 278.230469 388.296875 234.082031 344.144531 179.617188 344.144531 C 125.15625 344.144531 81.003906 388.296875 81.003906 442.757812 L 89.96875 442.757812 C 89.96875 405.328125 113.054688 373.054688 146 359.609375 Z M 146 359.609375 " fill-opacity="1" fill-rule="nonzero"/></g></svg>