<svg xmlns="http://www.w3.org/2000/svg" xmlns:xlink="http://www.w3.org/1999/xlink" width="1920" zoomAndPan="magnify" viewBox="0 0 1440 809.999993" height="1080" preserveAspectRatio="xMidYMid meet" version="1.0"><defs><clipPath id="e2cd744d75"><path d="M 0 0 L 1440 0 L 1440 810 L 0 810 Z M 0 0 " clip-rule="nonzero"/></clipPath><clipPath id="a04d999258"><path d="M 0 54 L 0 756 C 0 770.320312 5.6875 784.058594 15.816406 794.183594 C 25.941406 804.3125 39.679688 810 54 810 L 1386 810 C 1415.824219 810 1440 785.824219 1440 756 L 1440 54 C 1440 39.679688 1434.3125 25.941406 1424.183594 15.816406 C 1414.058594 5.6875 1400.320312 0 1386 0 L 54 0 C 24.175781 0 0 24.175781 0 54 Z M 0 54 " clip-rule="nonzero"/></clipPath><clipPath id="ae50477dad"><path d="M 0 615 L 1440 615 L 1440 810 L 0 810 Z M 0 615 " clip-rule="nonzero"/></clipPath><clipPath id="58a953fa12"><path d="M 0 54 L 0 756 C 0 770.320312 5.6875 784.058594 15.816406 794.183594 C 25.941406 804.3125 39.679688 810 54 810 L 1386 810 C 1415.824219 810 1440 785.824219 1440 756 L 1440 54 C 1440 39.679688 1434.3125 25.941406 1424.183594 15.816406 C 1414.058594 5.6875 1400.320312 0 1386 0 L 54 0 C 24.175781 0 0 24.175781 0 54 Z M 0 54 " clip-rule="nonzero"/></clipPath><clipPath id="4aed09e93c"><path d="M 0 660 L 1440 660 L 1440 810 L 0 810 Z M 0 660 " clip-rule="nonzero"/></clipPath><clipPath id="f0d5576cfe"><path d="M 0 54 L 0 756 C 0 770.320312 5.6875 784.058594 15.816406 794.183594 C 25.941406 804.3125 39.679688 810 54 810 L 1386 810 C 1415.824219 810 1440 785.824219 1440 756 L 1440 54 C 1440 39.679688 1434.3125 25.941406 1424.183594 15.816406 C 1414.058594 5.6875 1400.320312 0 1386 0 L 54 0 C 24.175781 0 0 24.175781 0 54 Z M 0 54 " clip-rule="nonzero"/></clipPath><clipPath id="e9290684d5"><path d="M 0 679 L 1440 679 L 1440 810 L 0 810 Z M 0 679 " clip-rule="nonzero"/></clipPath><clipPath id="3f760ba3f0"><path d="M 0 54 L 0 756 C 0 770.320312 5.6875 784.058594 15.816406 794.183594 C 25.941406 804.3125 39.679688 810 54 810 L 1386 810 C 1415.824219 810 1440 785.824219 1440 756 L 1440 54 C 1440 39.679688 1434.3125 25.941406 1424.183594 15.816406 C 1414.058594 5.6875 1400.320312 0 1386 0 L 54 0 C 24.175781 0 0 24.175781 0 54 Z M 0 54 " clip-rule="nonzero"/></clipPath><clipPath id="a8c201bb25"><path d="M 0 719 L 1440 719 L 1440 810 L 0 810 Z M 0 719 " clip-rule="nonzero"/></clipPath><clipPath id="aec3dc6ef2"><path d="M 0 54 L 0 756 C 0 770.320312 5.6875 784.058594 15.816406 794.183594 C 25.941406 804.3125 39.679688 810 54 810 L 1386 810 C 1415.824219 810 1440 785.824219 1440 756 L 1440 54 C 1440 39.679688 1434.3125 25.941406 1424.183594 15.816406 C 1414.058594 5.6875 1400.320312 0 1386 0 L 54 0 C 24.175781 0 0 24.175781 0 54 Z M 0 54 " clip-rule="nonzero"/></clipPath><clipPath id="a31497f79e"><path d="M 0 756 L 1440 756 L 1440 810 L 0 810 Z M 0 756 " clip-rule="nonzero"/></clipPath><clipPath id="ad510ab671"><path d="M 0 54 L 0 756 C 0 770.320312 5.6875 784.058594 15.816406 794.183594 C 25.941406 804.3125 39.679688 810 54 810 L 1386 810 C 1415.824219 810 1440 785.824219 1440 756 L 1440 54 C 1440 39.679688 1434.3125 25.941406 1424.183594 15.816406 C 1414.058594 5.6875 1400.320312 0 1386 0 L 54 0 C 24.175781 0 0 24.175781 0 54 Z M 0 54 " clip-rule="nonzero"/></clipPath><clipPath id="4c48194675"><path d="M 536 326 L 777 326 L 777 472.410156 L 536 472.410156 Z M 536 326 " clip-rule="nonzero"/></clipPath><clipPath id="c7b7055b52"><path d="M 762 326 L 910 326 L 910 472.410156 L 762 472.410156 Z M 762 326 " clip-rule="nonzero"/></clipPath><clipPath id="4efb339992"><path d="M 1048 326 L 1203 326 L 1203 472.410156 L 1048 472.410156 Z M 1048 326 " clip-rule="nonzero"/></clipPath><clipPath id="ae332f3faf"><path d="M 1187 326 L 1320.996094 326 L 1320.996094 472.410156 L 1187 472.410156 Z M 1187 326 " clip-rule="nonzero"/></clipPath><clipPath id="0bac15458e"><path d="M 144 296.8125 L 494.667969 296.8125 L 494.667969 471.476562 L 144 471.476562 Z M 144 296.8125 " clip-rule="nonzero"/></clipPath><clipPath id="c2df08553f"><rect x="0" width="1440" y="0" height="810"/></clipPath></defs><g transform="matrix(1, 0, 0, 1, 0, 0.000000000000039746)"><g clip-path="url(#c2df08553f)"><g clip-path="url(#e2cd744d75)"><g clip-path="url(#a04d999258)"><rect x="-316.8" width="2073.6" fill="#000000" height="1166.39999" y="-178.199998" fill-opacity="1"/></g></g><g clip-path="url(#ae50477dad)"><g clip-path="url(#58a953fa12)"><path fill="#382c91" d="M 0 615.507812 L 34.199219 626.765625 C 68.550781 638.023438 136.949219 660.542969 205.5 666.097656 C 274.050781 671.503906 342.449219 660.09375 411 659.042969 C 479.550781 657.992188 547.949219 667.597656 616.800781 669.851562 C 685.5 672.101562 754.5 667 823.199219 663.09375 C 892.050781 659.042969 960.449219 656.039062 1029 660.09375 C 1097.550781 663.996094 1165.949219 675.105469 1234.5 671.800781 C 1303.050781 668.5 1371.449219 651.085938 1405.800781 642.226562 L 1440 633.519531 L 1440 812.167969 L 1405.800781 812.167969 C 1371.449219 812.167969 1303.050781 812.167969 1234.5 812.167969 C 1165.949219 812.167969 1097.550781 812.167969 1029 812.167969 C 960.449219 812.167969 892.050781 812.167969 823.199219 812.167969 C 754.5 812.167969 685.5 812.167969 616.800781 812.167969 C 547.949219 812.167969 479.550781 812.167969 411 812.167969 C 342.449219 812.167969 274.050781 812.167969 205.5 812.167969 C 136.949219 812.167969 68.550781 812.167969 34.199219 812.167969 L 0 812.167969 Z M 0 615.507812 " fill-opacity="1" fill-rule="nonzero"/></g></g><g clip-path="url(#4aed09e93c)"><g clip-path="url(#f0d5576cfe)"><path fill="#4639a8" d="M 0 677.058594 L 34.199219 681.859375 C 68.550781 686.515625 136.949219 696.121094 205.5 700.027344 C 274.050781 704.078125 342.449219 702.578125 411 694.621094 C 479.550781 686.515625 547.949219 672.101562 616.800781 665.347656 C 685.5 658.589844 754.5 659.492188 823.199219 665.796875 C 892.050781 672.101562 960.449219 683.511719 1029 686.515625 C 1097.550781 689.515625 1165.949219 684.113281 1234.5 681.859375 C 1303.050781 679.609375 1371.449219 680.507812 1405.800781 681.109375 L 1440 681.558594 L 1440 812.167969 L 1405.800781 812.167969 C 1371.449219 812.167969 1303.050781 812.167969 1234.5 812.167969 C 1165.949219 812.167969 1097.550781 812.167969 1029 812.167969 C 960.449219 812.167969 892.050781 812.167969 823.199219 812.167969 C 754.5 812.167969 685.5 812.167969 616.800781 812.167969 C 547.949219 812.167969 479.550781 812.167969 411 812.167969 C 342.449219 812.167969 274.050781 812.167969 205.5 812.167969 C 136.949219 812.167969 68.550781 812.167969 34.199219 812.167969 L 0 812.167969 Z M 0 677.058594 " fill-opacity="1" fill-rule="nonzero"/></g></g><g clip-path="url(#e9290684d5)"><g clip-path="url(#3f760ba3f0)"><path fill="#5546bf" d="M 0 701.078125 L 34.199219 699.875 C 68.550781 698.523438 136.949219 696.121094 205.5 694.019531 C 274.050781 692.070312 342.449219 690.566406 411 689.816406 C 479.550781 689.066406 547.949219 689.066406 616.800781 688.015625 C 685.5 687.113281 754.5 685.011719 823.199219 683.363281 C 892.050781 681.558594 960.449219 680.058594 1029 679.609375 C 1097.550781 679.007812 1165.949219 679.609375 1234.5 681.109375 C 1303.050781 682.613281 1371.449219 685.011719 1405.800781 686.363281 L 1440 687.566406 L 1440 812.167969 L 1405.800781 812.167969 C 1371.449219 812.167969 1303.050781 812.167969 1234.5 812.167969 C 1165.949219 812.167969 1097.550781 812.167969 1029 812.167969 C 960.449219 812.167969 892.050781 812.167969 823.199219 812.167969 C 754.5 812.167969 685.5 812.167969 616.800781 812.167969 C 547.949219 812.167969 479.550781 812.167969 411 812.167969 C 342.449219 812.167969 274.050781 812.167969 205.5 812.167969 C 136.949219 812.167969 68.550781 812.167969 34.199219 812.167969 L 0 812.167969 Z M 0 701.078125 " fill-opacity="1" fill-rule="nonzero"/></g></g><g clip-path="url(#a8c201bb25)"><g clip-path="url(#aec3dc6ef2)"><path fill="#6454d7" d="M 0 734.105469 L 34.199219 733.054688 C 68.550781 732.152344 136.949219 730.050781 205.5 731.101562 C 274.050781 732.152344 342.449219 736.054688 411 739.660156 C 479.550781 743.109375 547.949219 746.113281 616.800781 744.160156 C 685.5 742.058594 754.5 735.15625 823.199219 729.148438 C 892.050781 723.144531 960.449219 718.039062 1029 721.792969 C 1097.550781 725.546875 1165.949219 738.15625 1234.5 739.058594 C 1303.050781 740.109375 1371.449219 729.601562 1405.800781 724.34375 L 1440 719.089844 L 1440 812.167969 L 1405.800781 812.167969 C 1371.449219 812.167969 1303.050781 812.167969 1234.5 812.167969 C 1165.949219 812.167969 1097.550781 812.167969 1029 812.167969 C 960.449219 812.167969 892.050781 812.167969 823.199219 812.167969 C 754.5 812.167969 685.5 812.167969 616.800781 812.167969 C 547.949219 812.167969 479.550781 812.167969 411 812.167969 C 342.449219 812.167969 274.050781 812.167969 205.5 812.167969 C 136.949219 812.167969 68.550781 812.167969 34.199219 812.167969 L 0 812.167969 Z M 0 734.105469 " fill-opacity="1" fill-rule="nonzero"/></g></g><g clip-path="url(#a31497f79e)"><g clip-path="url(#ad510ab671)"><path fill="#7362ef" d="M 0 783.644531 L 34.199219 778.839844 C 68.550781 774.1875 136.949219 764.578125 205.5 763.378906 C 274.050781 762.175781 342.449219 769.082031 411 773.4375 C 479.550781 777.640625 547.949219 779.140625 616.800781 777.640625 C 685.5 776.136719 754.5 771.632812 823.199219 767.582031 C 892.050781 763.679688 960.449219 760.074219 1029 758.125 C 1097.550781 756.171875 1165.949219 755.570312 1234.5 757.824219 C 1303.050781 760.074219 1371.449219 765.179688 1405.800781 767.582031 L 1440 770.132812 L 1440 812.167969 L 1405.800781 812.167969 C 1371.449219 812.167969 1303.050781 812.167969 1234.5 812.167969 C 1165.949219 812.167969 1097.550781 812.167969 1029 812.167969 C 960.449219 812.167969 892.050781 812.167969 823.199219 812.167969 C 754.5 812.167969 685.5 812.167969 616.800781 812.167969 C 547.949219 812.167969 479.550781 812.167969 411 812.167969 C 342.449219 812.167969 274.050781 812.167969 205.5 812.167969 C 136.949219 812.167969 68.550781 812.167969 34.199219 812.167969 L 0 812.167969 Z M 0 783.644531 " fill-opacity="1" fill-rule="nonzero"/></g></g><g clip-path="url(#4c48194675)"><path fill="#ffffff" d="M 604.554688 326.359375 C 628.082031 326.359375 646.058594 331.738281 658.457031 342.460938 C 670.859375 353.203125 677.058594 369.648438 677.058594 391.800781 L 677.058594 470.503906 L 630.730469 470.503906 L 630.730469 452.164062 C 623.539062 465.941406 609.589844 472.828125 588.882812 472.828125 C 577.859375 472.828125 568.324219 470.933594 560.292969 467.144531 C 552.308594 463.3125 546.257812 458.105469 542.125 451.558594 C 538.035156 445.015625 536.011719 437.566406 536.011719 429.171875 C 536.011719 415.738281 541.136719 405.320312 551.425781 397.914062 C 561.757812 390.507812 577.625 386.804688 599.042969 386.804688 L 627.285156 386.804688 C 626.425781 371.824219 616.394531 364.332031 597.234375 364.332031 C 590.453125 364.332031 583.566406 365.429688 576.570312 367.605469 C 569.617188 369.800781 563.671875 372.769531 558.746094 376.558594 L 542.039062 342.804688 C 549.898438 337.59375 559.453125 333.546875 570.714844 330.664062 C 581.949219 327.800781 593.230469 326.359375 604.554688 326.359375 Z M 602.746094 441.484375 C 608.472656 441.484375 613.53125 440.105469 617.902344 437.351562 C 622.25 434.554688 625.390625 430.421875 627.285156 424.953125 L 627.285156 412.722656 L 605.84375 412.722656 C 591.378906 412.722656 584.144531 417.523438 584.144531 427.105469 C 584.144531 431.476562 585.804688 434.984375 589.140625 437.609375 C 592.457031 440.191406 596.996094 441.484375 602.746094 441.484375 Z M 729.066406 345.734375 C 734.105469 339.253906 740.691406 334.410156 748.785156 331.179688 C 756.925781 327.972656 766.222656 326.359375 776.6875 326.359375 L 776.6875 371.132812 C 772.144531 370.574219 768.375 370.273438 765.40625 370.273438 C 754.769531 370.273438 746.460938 373.179688 740.433594 378.96875 C 734.449219 384.71875 731.480469 393.523438 731.480469 405.40625 L 731.480469 470.503906 L 681.707031 470.503906 L 681.707031 328.683594 L 729.066406 328.683594 Z M 729.066406 345.734375 " fill-opacity="1" fill-rule="nonzero"/></g><g clip-path="url(#c7b7055b52)"><path fill="#ffffff" d="M 843.417969 472.828125 C 827.679688 472.828125 813.625 469.707031 801.222656 463.441406 C 788.867188 457.199219 779.265625 448.503906 772.378906 437.351562 C 765.488281 426.15625 762.046875 413.5 762.046875 399.378906 C 762.046875 385.253906 765.488281 372.664062 772.378906 361.578125 C 779.265625 350.511719 788.867188 341.855469 801.222656 335.65625 C 813.625 329.457031 827.679688 326.359375 843.417969 326.359375 C 859.433594 326.359375 873.253906 329.800781 884.921875 336.691406 C 896.632812 343.578125 904.921875 353.136719 909.808594 365.363281 L 871.402344 384.996094 C 864.964844 372.253906 855.558594 365.882812 843.160156 365.882812 C 834.246094 365.882812 826.886719 368.851562 821.03125 374.75 C 815.175781 380.671875 812.246094 388.871094 812.246094 399.378906 C 812.246094 410.011719 815.175781 418.320312 821.03125 424.347656 C 826.886719 430.375 834.246094 433.390625 843.160156 433.390625 C 855.558594 433.390625 864.964844 427.019531 871.402344 414.273438 L 909.808594 433.90625 C 904.921875 446.09375 896.632812 455.605469 884.921875 462.496094 C 873.253906 469.382812 859.433594 472.828125 843.417969 472.828125 Z M 843.417969 472.828125 " fill-opacity="1" fill-rule="nonzero"/></g><path fill="#ffffff" d="M 994.371094 326.359375 C 1011.980469 326.359375 1026.144531 331.609375 1036.820312 342.117188 C 1047.542969 352.578125 1052.925781 368.335938 1052.925781 389.390625 L 1052.925781 470.503906 L 1003.238281 470.503906 L 1003.238281 397.484375 C 1003.238281 378.152344 995.488281 368.464844 979.988281 368.464844 C 971.421875 368.464844 964.578125 371.285156 959.410156 376.902344 C 954.289062 382.480469 951.746094 390.832031 951.746094 401.960938 L 951.746094 470.503906 L 901.976562 470.503906 L 901.976562 276.414062 L 951.746094 276.414062 L 951.746094 341.769531 C 957.128906 336.734375 963.480469 332.902344 970.777344 330.320312 C 978.117188 327.691406 985.976562 326.359375 994.371094 326.359375 Z M 994.371094 326.359375 " fill-opacity="1" fill-rule="nonzero"/><g clip-path="url(#4efb339992)"><path fill="#ffffff" d="M 1202.289062 399.894531 C 1202.289062 400.238281 1202.03125 404.351562 1201.511719 412.207031 L 1098.441406 412.207031 C 1100.550781 419.503906 1104.597656 425.125 1110.582031 429.085938 C 1116.609375 433.003906 1124.144531 434.941406 1133.230469 434.941406 C 1140.054688 434.941406 1145.929688 433.992188 1150.882812 432.097656 C 1155.875 430.160156 1160.890625 426.996094 1165.949219 422.628906 L 1192.128906 449.835938 C 1178.351562 465.164062 1158.199219 472.828125 1131.679688 472.828125 C 1115.082031 472.828125 1100.507812 469.707031 1087.9375 463.441406 C 1075.40625 457.199219 1065.722656 448.503906 1058.832031 437.351562 C 1051.945312 426.15625 1048.5 413.5 1048.5 399.378906 C 1048.5 385.429688 1051.855469 372.921875 1058.574219 361.835938 C 1065.289062 350.769531 1074.546875 342.09375 1086.386719 335.828125 C 1098.269531 329.523438 1111.617188 326.359375 1126.425781 326.359375 C 1140.546875 326.359375 1153.335938 329.285156 1164.832031 335.140625 C 1176.371094 340.996094 1185.496094 349.476562 1192.214844 360.542969 C 1198.929688 371.566406 1202.289062 384.695312 1202.289062 399.894531 Z M 1126.683594 361.664062 C 1119.042969 361.664062 1112.648438 363.859375 1107.484375 368.207031 C 1102.316406 372.578125 1099.042969 378.515625 1097.667969 386.03125 L 1155.789062 386.03125 C 1154.347656 378.519531 1151.054688 372.578125 1145.886719 368.207031 C 1140.765625 363.859375 1134.371094 361.664062 1126.683594 361.664062 Z M 1126.683594 361.664062 " fill-opacity="1" fill-rule="nonzero"/></g><g clip-path="url(#ae332f3faf)"><path fill="#ffffff" d="M 1250.210938 472.828125 C 1238.34375 472.832031 1226.632812 471.480469 1215.078125 468.78125 C 1203.582031 466.089844 1194.371094 462.558594 1187.4375 458.191406 L 1202.335938 424.175781 C 1208.75 428.203125 1216.414062 431.386719 1225.328125 433.734375 C 1234.21875 436.101562 1243.023438 437.265625 1251.761719 437.265625 C 1259.789062 437.265625 1265.496094 436.449219 1268.898438 434.769531 C 1272.277344 433.109375 1273.976562 430.722656 1273.976562 427.621094 C 1273.976562 424.476562 1271.910156 422.261719 1267.777344 420.992188 C 1263.6875 419.675781 1257.230469 418.386719 1248.402344 417.117188 C 1237.039062 415.738281 1227.394531 413.929688 1219.472656 411.691406 C 1211.550781 409.410156 1204.683594 405.210938 1198.890625 399.121094 C 1193.144531 392.984375 1190.28125 384.4375 1190.28125 373.460938 C 1190.28125 364.394531 1192.972656 356.324219 1198.375 349.261719 C 1203.757812 342.203125 1211.65625 336.648438 1222.054688 332.558594 C 1232.429688 328.425781 1244.871094 326.359375 1259.339844 326.359375 C 1269.609375 326.359375 1279.789062 327.433594 1289.90625 329.542969 C 1300.070312 331.609375 1308.527344 334.582031 1315.308594 338.414062 L 1300.414062 372.167969 C 1287.839844 365.171875 1274.234375 361.664062 1259.597656 361.664062 C 1251.71875 361.664062 1245.949219 362.589844 1242.289062 364.417969 C 1238.671875 366.269531 1236.863281 368.679688 1236.863281 371.652344 C 1236.863281 374.921875 1238.867188 377.226562 1242.894531 378.539062 C 1246.898438 379.875 1253.527344 381.210938 1262.785156 382.585938 C 1274.429688 384.375 1284.09375 386.417969 1291.800781 388.699219 C 1299.488281 390.9375 1306.140625 395.074219 1311.78125 401.101562 C 1317.460938 407.085938 1320.304688 415.480469 1320.304688 426.328125 C 1320.304688 435.242188 1317.59375 443.207031 1312.210938 450.269531 C 1306.804688 457.328125 1298.820312 462.882812 1288.269531 466.886719 C 1277.703125 470.847656 1265.023438 472.828125 1250.210938 472.828125 Z M 1250.210938 472.828125 " fill-opacity="1" fill-rule="nonzero"/></g><g clip-path="url(#0bac15458e)"><path fill="#ffffff" d="M 259.558594 324.304688 C 203.378906 350.203125 164.332031 406.78125 164.332031 472.125 L 179.472656 472.125 C 179.472656 403.195312 227.285156 345.023438 291.433594 329.085938 C 229.675781 347.414062 184.652344 404.789062 184.652344 472.125 L 198.597656 472.125 C 198.597656 402 251.988281 344.226562 320.121094 337.453125 C 255.175781 347.8125 205.371094 403.992188 205.371094 472.125 L 218.519531 472.125 C 218.519531 403.992188 273.902344 348.609375 342.035156 348.609375 L 346.417969 348.609375 C 279.480469 350.203125 225.691406 405.1875 225.691406 472.125 L 237.644531 472.125 C 237.644531 410.765625 287.449219 360.5625 349.207031 360.5625 C 355.582031 360.5625 361.957031 360.960938 367.933594 362.15625 C 364.347656 361.757812 360.363281 361.359375 356.378906 361.359375 C 295.417969 361.757812 246.011719 411.164062 246.011719 472.125 L 257.167969 472.125 C 257.167969 417.140625 301.792969 372.914062 356.378906 372.914062 C 367.136719 372.914062 377.496094 374.507812 387.058594 377.695312 C 379.488281 375.703125 371.917969 374.90625 363.949219 374.90625 C 310.160156 374.90625 266.730469 418.734375 266.730469 472.125 L 276.691406 472.125 C 276.691406 423.914062 315.738281 384.867188 363.949219 384.867188 C 377.894531 384.867188 391.042969 388.054688 402.996094 394.03125 C 393.035156 390.046875 382.675781 387.65625 371.519531 387.65625 C 324.902344 387.65625 287.050781 425.507812 287.050781 472.125 L 295.816406 472.125 C 295.816406 430.6875 329.683594 396.820312 371.121094 396.820312 C 387.457031 396.820312 402.199219 402 414.550781 410.765625 C 403.792969 404.390625 391.441406 400.804688 378.292969 400.804688 C 339.246094 400.804688 307.371094 432.679688 307.371094 472.125 L 315.339844 472.125 C 315.339844 437.0625 343.628906 408.773438 378.691406 408.773438 C 396.222656 408.773438 412.160156 415.945312 423.714844 427.5 C 413.355469 418.734375 400.605469 413.554688 386.261719 413.554688 C 353.988281 413.554688 327.691406 439.851562 327.691406 472.125 L 334.863281 472.125 C 334.863281 443.835938 357.972656 420.726562 386.261719 420.726562 C 404.191406 420.726562 420.128906 429.890625 429.292969 444.234375 C 420.925781 433.875 408.175781 426.703125 393.832031 426.703125 C 368.730469 426.703125 348.410156 447.023438 348.410156 472.125 L 354.386719 472.125 C 354.386719 450.210938 371.917969 432.679688 393.832031 432.679688 C 411.761719 432.679688 426.902344 444.632812 431.683594 460.96875 C 426.902344 448.617188 415.347656 439.851562 401.402344 439.851562 C 383.472656 439.851562 369.128906 454.195312 369.128906 472.125 L 373.910156 472.125 C 373.910156 456.984375 386.261719 444.632812 401.402344 444.632812 C 413.753906 444.632812 424.113281 453 427.699219 464.15625 C 424.511719 457.382812 417.738281 452.601562 409.769531 452.601562 C 399.011719 452.601562 390.246094 461.367188 390.246094 472.125 L 394.230469 472.125 C 394.230469 463.757812 401.003906 456.585938 409.769531 456.585938 C 418.535156 456.585938 425.308594 463.359375 425.308594 472.125 L 494.636719 472.125 C 494.636719 375.304688 416.144531 296.8125 319.324219 296.8125 C 222.503906 296.8125 144.011719 375.304688 144.011719 472.125 L 159.949219 472.125 C 159.949219 405.585938 200.988281 348.210938 259.558594 324.304688 Z M 259.558594 324.304688 " fill-opacity="1" fill-rule="nonzero"/></g></g></g></svg>