<svg xmlns="http://www.w3.org/2000/svg" viewBox="0 0 147 43">
  <g fill="currentColor">
    <path d="M14.9844 12.5471c4.2695 0 7.5313.9766 9.7813 2.922 2.25 1.9491 3.375 4.9335 3.375 8.953v14.2813h-8.4063v-3.3281c-1.3047 2.5-3.836 3.75-7.5937 3.75-2 0-3.7305-.3438-5.1875-1.0313-1.4493-.6953-2.547-1.6406-3.297-2.8281-.7421-1.1875-1.1093-2.539-1.1093-4.0625 0-2.4375.9297-4.3281 2.7969-5.6719 1.875-1.3437 4.7539-2.0156 8.6406-2.0156h5.125c-.1562-2.7188-1.9766-4.0781-5.4531-4.0781-1.2305 0-2.4805.1992-3.75.5937-1.2617.3985-2.3399.9375-3.2344 1.625l-3.0312-6.125c1.4257-.9453 3.1601-1.6797 5.203-2.2031 2.0391-.5195 4.086-.7813 6.1407-.7813Zm-.3281 20.8907c1.039 0 1.957-.25 2.75-.75.789-.5078 1.3594-1.2578 1.7031-2.25V28.219h-3.8906c-2.625 0-3.9375.8711-3.9375 2.6094 0 .793.3008 1.4297.9062 1.9062.6016.4688 1.4258.7032 2.4688.7032Zm22.9221-17.375c.914-1.1758 2.1094-2.0547 3.5782-2.6407 1.4765-.582 3.164-.875 5.0625-.875v8.125c-.8243-.1015-1.5079-.1562-2.047-.1562-1.9296 0-3.4374.5273-4.5312 1.5781-1.086 1.043-1.625 2.6406-1.625 4.7969v11.8125h-9.0312V12.969h8.5937Zm0 0"/>
    <path d="M58.328 39.1253c-2.8554 0-5.4062-.5664-7.6562-1.7032-2.2422-1.1328-3.9844-2.7109-5.2344-4.7343-1.25-2.0313-1.875-4.3282-1.875-6.8907s.625-4.8476 1.875-6.8593c1.25-2.0078 2.9922-3.5782 5.2344-4.7032 2.25-1.125 4.8008-1.6875 7.6563-1.6875 2.9062 0 5.414.625 7.5312 1.875 2.125 1.25 3.629 2.9844 4.5156 5.2032l-6.9687 3.5625c-1.168-2.3125-2.875-3.4688-5.125-3.4688-1.6172 0-2.9531.539-4.0156 1.6094-1.0625 1.0742-1.5938 2.5625-1.5938 4.4687 0 1.9297.5313 3.4375 1.5938 4.5313 1.0625 1.0937 2.3984 1.6406 4.0156 1.6406 2.25 0 3.957-1.1562 5.125-3.4687l6.9687 3.5625c-.8867 2.211-2.3906 3.9375-4.5156 5.1875-2.1172 1.25-4.625 1.875-7.5312 1.875Zm0 0"/>
    <path d="M85.7197 12.5471c3.1953 0 5.7656.9532 7.7031 2.8594 1.9453 1.8985 2.922 4.7578 2.922 8.5781v14.7188H87.329v-13.25c0-3.5078-1.4063-5.2656-4.2188-5.2656-1.5547 0-2.7968.5117-3.7343 1.5312-.9297 1.0117-1.3907 2.5274-1.3907 4.5469v12.4375H68.954V3.4846h9.0312V15.344c.9766-.914 2.129-1.6094 3.4532-2.0781 1.332-.4766 2.7578-.7188 4.2812-.7188Zm0 0"/>
    <path d="M123.448 25.8909c0 .0625-.047.8086-.1407 2.2344h-18.7031c.3828 1.3242 1.1171 2.3437 2.203 3.0625 1.0938.711 2.461 1.0625 4.1095 1.0625 1.2382 0 2.3046-.1719 3.203-.5157.9063-.3515 1.8165-.9257 2.7345-1.7187l4.75 4.9375c-2.5 2.7812-6.1563 4.1719-10.9688 4.1719-3.0117 0-5.6562-.5664-7.9375-1.7032-2.2734-1.1328-4.0312-2.7109-5.2812-4.7343-1.25-2.0313-1.875-4.3282-1.875-6.8907 0-2.5312.6093-4.8007 1.828-6.8125 1.2188-2.0078 2.8985-3.582 5.047-4.7187 2.1562-1.1445 4.578-1.7188 7.2656-1.7188 2.5625 0 4.8828.5313 6.9687 1.5938 2.0938 1.0625 3.75 2.6016 4.9688 4.6094 1.2187 2 1.8281 4.3828 1.8281 7.1406Zm-13.7188-6.9375c-1.3868 0-2.547.3984-3.4844 1.1875-.9375.793-1.5313 1.871-1.7813 3.2344h10.547c-.2618-1.3633-.8595-2.4414-1.797-3.2344-.9297-.789-2.0898-1.1875-3.4843-1.1875Zm0 0"/>
    <path d="M132.144 39.1253a27.9775 27.9775 0 0 1-6.375-.7344c-2.086-.4883-3.7578-1.129-5.0156-1.9219l2.7031-6.1719c1.164.7305 2.5547 1.3086 4.1719 1.7344 1.6133.4297 3.211.6406 4.7968.6406 1.457 0 2.4922-.1484 3.1094-.453.6133-.3009.9219-.7345.9219-1.297 0-.5703-.375-.9726-1.125-1.203-.7422-.2384-1.914-.4727-3.5156-.7032-2.0625-.25-3.8125-.5781-5.25-.9844-1.4375-.414-2.6836-1.1758-3.7344-2.2812-1.043-1.1133-1.5625-2.664-1.5625-4.6563 0-1.6445.4883-3.1094 1.4687-4.3906.9766-1.2813 2.4102-2.289 4.297-3.0313 1.8827-.75 4.1405-1.125 6.7655-1.125 1.8633 0 3.711.1954 5.547.5782 1.8437.375 3.3788.914 4.6093 1.6093l-2.7031 6.125c-2.2813-1.2695-4.75-1.9062-7.4063-1.9062-1.4297 0-2.4765.168-3.1406.5-.6563.336-.9844.7734-.9844 1.3125 0 .5937.3633 1.0117 1.0938 1.25.7265.2422 1.9297.4844 3.6093.7344 2.1133.3242 3.8672.6953 5.2657 1.1093 1.3945.4063 2.6015 1.1563 3.625 2.25 1.0312 1.086 1.5468 2.6094 1.5468 4.5782 0 1.6172-.4921 3.0625-1.4687 4.3437-.9805 1.2813-2.4297 2.289-4.3438 3.0156-1.918.7188-4.2187 1.0782-6.9062 1.0782Zm0 0"/>
  </g>
</svg>
